<svg xmlns="http://www.w3.org/2000/svg" width="40" height="40" viewBox="0 0 40 40"><g data-name="Group 49196"><path data-name="Path 102876" d="M19.999 39.999a20 20 0 1 0-20-20 20 20 0 0 0 20 20Z" fill="#dadce0" opacity=".5"/><g data-name="Group 49195"><g data-name="Group 49194"><path data-name="Path 102888" d="M24.366 8.6h.162a4.876 4.876 0 0 1-1.231 3.675 3.807 3.807 0 0 1-3.351 1.573 4.73 4.73 0 0 1 1.251-3.561A5.4 5.4 0 0 1 24.366 8.6Z"/><path data-name="Path 102889" d="M29.267 25.316v.045a13.25 13.25 0 0 1-1.9 3.655c-.723 1-1.609 2.334-3.191 2.334-1.367 0-2.275-.879-3.676-.9-1.482-.024-2.3.735-3.652.926h-.458a4.126 4.126 0 0 1-2.383-1.645 14.386 14.386 0 0 1-3.31-8.276v-1.019a6.674 6.674 0 0 1 2.918-5.478 4.921 4.921 0 0 1 3.3-.765 8.312 8.312 0 0 1 1.619.464 4.47 4.47 0 0 0 1.618.485 3.884 3.884 0 0 0 1.139-.342 6.984 6.984 0 0 1 3.652-.648 5.067 5.067 0 0 1 3.723 2.22 4.778 4.778 0 0 0-2.427 4.74 4.893 4.893 0 0 0 3.028 4.204Z"/></g></g></g></svg>