<svg xmlns="http://www.w3.org/2000/svg" width="40" height="40" viewBox="0 0 40 40"><g data-name="Group 49193"><path data-name="Path 102876" d="M19.999 39.999a20 20 0 1 0-20-20 20 20 0 0 0 20 20Z" fill="#dadce0" opacity=".5"/><g data-name="Group 49191"><path data-name="Path 102884" d="M20.598 19.4h9.4v-8.773a.627.627 0 0 0-.625-.627h-8.775Z" fill="#4caf50"/><path data-name="Path 102885" d="M19.4 19.4V10h-8.773a.627.627 0 0 0-.627.627V19.4Z" fill="#f44336"/><path data-name="Path 102886" d="M19.4 20.598H10v8.775a.627.627 0 0 0 .627.627H19.4Z" fill="#2196f3"/><path data-name="Path 102887" d="M20.598 20.598v9.4h8.775a.627.627 0 0 0 .627-.627v-8.773Z" fill="#ffc107"/></g></g></svg>