<svg xmlns="http://www.w3.org/2000/svg" width="16" height="16" viewBox="0 0 16 16" fill="none"><path fill-rule="evenodd" clip-rule="evenodd" d="M5.451.668a1.45 1.45 0 1 0 0 2.901 1.45 1.45 0 0 0 0-2.901ZM4 8.008a1.45 1.45 0 1 1 2.902 0 1.45 1.45 0 0 1-2.902 0Zm0 5.876a1.45 1.45 0 1 1 2.901-.002A1.45 1.45 0 0 1 4 13.884ZM10.785.668a1.45 1.45 0 1 0 0 2.901 1.45 1.45 0 0 0 0-2.901Zm-1.451 7.34a1.45 1.45 0 1 1 2.901 0 1.45 1.45 0 0 1-2.901 0Zm0 5.876a1.45 1.45 0 1 1 2.901-.002 1.45 1.45 0 0 1-2.901.002Z" fill="#666"/></svg>