<svg xmlns="http://www.w3.org/2000/svg" width="24" height="26" viewBox="0 0 24 26" fill="none"><mask id="a" maskUnits="userSpaceOnUse" x="16" y="3" width="8" height="8" style="mask-type:luminance"><path d="M24 3h-8v8h8V3Z" fill="#fff"/></mask><g mask="url(#a)"><path d="m23.801 7.003-2.787 1.012L20 10.803l-1.01-2.788-2.79-1.012 2.788-1.012L20 3.203l1.013 2.788L23.8 7.003Z" fill="url(#b)"/></g><mask id="c" maskUnits="userSpaceOnUse" x="0" y="10" width="6" height="6" style="mask-type:luminance"><path d="M6 10H0v6h6v-6Z" fill="#fff"/></mask><g mask="url(#c)"><path d="m5.85 13.002-2.091.76-.76 2.09-.759-2.09-2.09-.76 2.09-.759.76-2.09.759 2.09 2.09.76Z" fill="url(#d)"/></g><mask id="e" maskUnits="userSpaceOnUse" x="16" y="20" width="4" height="4" style="mask-type:luminance"><path d="M20 20h-4v4h4v-4Z" fill="#fff"/></mask><g mask="url(#e)"><path d="m19.9 22.002-1.394.506L18 23.902l-.507-1.394-1.393-.506 1.393-.507.507-1.393.506 1.393 1.394.507Z" fill="url(#f)"/></g><g filter="url(#g)"><path fill-rule="evenodd" clip-rule="evenodd" d="M11.867 20.333c2.943-.08 4.6-2.28 4.501-4.807-.413-3.711-4.818-4.906-3.054-9.86-3.543 3.053-6.086 6.961-5.978 9.742.049 2.697 1.61 4.925 4.531 4.925Zm2.684-3.763c.454 0 .78-.37.82-.821.109-.318 0-1.775-1.076-2.71.175 1.214-.662 2.222-.565 2.71 0 .453.368.82.821.82Z" fill="#1DA1F2"/></g><defs><linearGradient id="b" x1="20.001" y1="3.203" x2="20.001" y2="10.803" gradientUnits="userSpaceOnUse"><stop stop-color="#1DA1F2"/><stop offset="1" stop-color="#6CD2FF"/></linearGradient><linearGradient id="d" x1="2.999" y1="10.152" x2="2.999" y2="15.852" gradientUnits="userSpaceOnUse"><stop stop-color="#1DA1F2"/><stop offset="1" stop-color="#6CD2FF"/></linearGradient><linearGradient id="f" x1="18" y1="20.102" x2="18" y2="23.902" gradientUnits="userSpaceOnUse"><stop stop-color="#1DA1F2"/><stop offset="1" stop-color="#6CD2FF"/></linearGradient><filter id="g" x="2.476" y=".809" width="18.753" height="24.381" filterUnits="userSpaceOnUse" color-interpolation-filters="sRGB"><feFlood flood-opacity="0" result="BackgroundImageFix"/><feColorMatrix in="SourceAlpha" values="0 0 0 0 0 0 0 0 0 0 0 0 0 0 0 0 0 0 127 0" result="hardAlpha"/><feOffset/><feGaussianBlur stdDeviation="2.429"/><feColorMatrix values="0 0 0 0 0 0 0 0 0 0 0 0 0 0 0 0 0 0 0.12 0"/><feBlend in2="BackgroundImageFix" result="effect1_dropShadow_427_34"/><feBlend in="SourceGraphic" in2="effect1_dropShadow_427_34" result="shape"/></filter></defs></svg>