<svg xmlns="http://www.w3.org/2000/svg" width="40" height="40" viewBox="0 0 40 40"><g data-name="Group 49187"><path data-name="Path 102871" d="M19.999 39.999a20 20 0 1 0-20-20 20 20 0 0 0 20 20Z" fill="#dadce0" opacity=".5"/><path data-name="Path 102872" d="M32.041 20.333a14.383 14.383 0 0 0-.211-2.486H20.29v4.711h6.6a5.664 5.664 0 0 1-2.445 3.717v3.057h3.945a11.948 11.948 0 0 0 3.649-9Z" fill="#4285f4"/><path data-name="Path 102873" d="M20.184 32.286a11.711 11.711 0 0 0 8.109-2.953l-3.942-3.057a7.42 7.42 0 0 1-11.03-3.88h-4.07v3.149a12.235 12.235 0 0 0 10.933 6.741Z" fill="#34a853"/><path data-name="Path 102874" d="M13.316 22.341a7.327 7.327 0 0 1 0-4.685v-3.149H9.251a12.244 12.244 0 0 0 0 10.983Z" fill="#fbbc04"/><path data-name="Path 102875" d="M20.244 12.551a6.706 6.706 0 0 1 4.719 1.834l3.512-3.493a11.86 11.86 0 0 0-8.231-3.182 12.307 12.307 0 0 0-10.993 6.742l4.087 3.147a7.354 7.354 0 0 1 6.907-5.053Z" fill="#ea4335"/></g></svg>